<svg width="45" height="45" viewBox="0 0 45 45" fill="none" xmlns="http://www.w3.org/2000/svg">
<path d="M13.125 11.625V33.375C13.125 35.475 13.125 36.525 13.5337 37.3275C13.8933 38.0331 14.4669 38.6067 15.1725 38.9662C15.9731 39.375 17.0231 39.375 19.1194 39.375H25.8806C27.9769 39.375 29.025 39.375 29.8256 38.9662C30.5325 38.6062 31.1062 38.0325 31.4662 37.3275C31.875 36.525 31.875 35.4788 31.875 33.3825V11.6194C31.875 9.52312 31.875 8.47312 31.4662 7.6725C31.1062 6.96664 30.5319 6.39295 29.8256 6.03375C29.025 5.625 27.975 5.625 25.875 5.625H19.125C17.025 5.625 15.975 5.625 15.1725 6.03375C14.4669 6.39327 13.8933 6.96692 13.5337 7.6725C13.125 8.475 13.125 9.525 13.125 11.625Z" stroke="#CF422F" stroke-width="2" stroke-linecap="round" stroke-linejoin="round"/>
<path d="M15 13.125H30" stroke="#CF422F" stroke-width="2"/>
<path d="M15 33.75H30" stroke="#CF422F" stroke-width="2"/>
<path d="M18.75 9.375H20.625" stroke="#CF422F"/>
<path d="M22.5 9.375H26.25" stroke="#CF422F" stroke-linecap="round"/>
</svg>
