<svg width="24" height="34" viewBox="0 0 24 34" fill="none" xmlns="http://www.w3.org/2000/svg">
<path d="M7.0909 32.5427C9.9008 32.5427 12.1813 30.2622 12.1813 27.4523V22.3618H7.0909C4.28099 22.3618 2.00049 24.6424 2.00049 27.4523C2.00049 30.2622 4.28099 32.5427 7.0909 32.5427Z" stroke="white" stroke-width="2.5"/>
<path d="M2.00049 17.2713C2.00049 14.4614 4.28099 12.1809 7.0909 12.1809H12.1813V22.3618H7.0909C4.28099 22.3618 2.00049 20.0813 2.00049 17.2713Z" stroke="white" stroke-width="2.5"/>
<path d="M2 7.09041C2 4.2805 4.2805 2 7.09041 2H12.1808V12.1808H7.09041C4.2805 12.1808 2 9.90032 2 7.09041Z" stroke="white" stroke-width="2.5"/>
<path d="M22.3618 7.09044C22.3618 4.28053 20.0813 2.00003 17.2714 2.00003H12.181V12.1808H17.2714C20.0813 12.1808 22.3618 9.90035 22.3618 7.09044Z" stroke="white" stroke-width="2.5"/>
<path d="M22.3615 17.2713C22.3615 20.0813 20.081 22.3618 17.2711 22.3618C14.4612 22.3618 12.1807 20.0813 12.1807 17.2713C12.1807 14.4614 14.4612 12.1809 17.2711 12.1809C20.081 12.1809 22.3615 14.4614 22.3615 17.2713Z" stroke="white" stroke-width="2.5"/>
</svg>
