<svg width="23" height="23" viewBox="0 0 23 23" fill="none" xmlns="http://www.w3.org/2000/svg">
<path d="M11.912 0.922861C9.29685 0.920601 6.76638 1.87432 4.77399 3.61312C2.78159 5.35193 1.45748 7.76219 1.03889 10.412C0.62031 13.0619 1.13462 15.7782 2.48966 18.0742C3.8447 20.3701 5.95192 22.0958 8.43376 22.9419C8.98274 23.0396 9.15705 22.7085 9.15705 22.4103C9.15705 22.1398 9.16306 21.3912 9.15705 20.4461C6.09456 21.1269 5.46243 18.9571 5.46243 18.9571C5.2603 18.2741 4.82677 17.6879 4.24024 17.3045C3.24145 16.6032 4.31537 16.6165 4.31537 16.6165C4.66414 16.6658 4.99734 16.7962 5.28954 16.9977C5.58174 17.1993 5.82522 17.4667 6.0014 17.7796C6.15047 18.0583 6.35188 18.3039 6.59397 18.5022C6.83606 18.7006 7.11404 18.8477 7.41184 18.9351C7.70965 19.0225 8.02137 19.0484 8.32901 19.0114C8.63664 18.9744 8.93408 18.8752 9.20414 18.7195C9.25466 18.1483 9.50228 17.6144 9.90239 17.214C7.45901 16.9271 4.8894 15.9594 4.8894 11.628C4.87387 10.5054 5.27997 9.41982 6.02344 8.59642C5.68659 7.62236 5.72493 6.55301 6.13063 5.607C6.13063 5.607 7.05629 5.30364 9.15605 6.76699C10.9604 6.25897 12.8646 6.25897 14.6689 6.76699C16.7747 5.30467 17.6924 5.607 17.6924 5.607C18.0981 6.55309 18.1371 7.62257 17.8015 8.59642C18.5452 9.42037 18.9507 10.507 18.9336 11.6301C18.9336 15.9728 16.36 16.9261 13.9086 17.2037C14.1721 17.4754 14.3758 17.802 14.5057 18.1614C14.6357 18.5209 14.689 18.9048 14.6619 19.2872V22.4144C14.6619 22.7167 14.8392 23.0509 15.3982 22.9409C17.88 22.094 19.9868 20.3675 21.3412 18.071C22.6956 15.7744 23.209 13.0577 22.7894 10.4079C22.3699 7.75804 21.0448 5.34816 19.0515 3.61009C17.0583 1.87202 14.5273 0.919377 11.912 0.922861Z" fill="white"/>
</svg>
