<svg width="18" height="19" viewBox="0 0 18 19" fill="none" xmlns="http://www.w3.org/2000/svg">
<path d="M17 15V9.452C17 8.918 17 8.651 16.935 8.402C16.8774 8.18191 16.7827 7.97325 16.655 7.785C16.51 7.572 16.31 7.395 15.907 7.044L11.107 2.844C10.361 2.191 9.987 1.864 9.567 1.74C9.197 1.63 8.803 1.63 8.432 1.74C8.012 1.864 7.64 2.19 6.894 2.842L2.093 7.044C1.691 7.396 1.49 7.572 1.346 7.784C1.2178 7.97248 1.12276 8.18149 1.065 8.402C1 8.65 1 8.918 1 9.452L1 15C1 15.932 1 16.398 1.152 16.765C1.2524 17.0077 1.39963 17.2283 1.58528 17.4141C1.77093 17.5999 1.99137 17.7474 2.234 17.848C2.602 18 3.068 18 4 18C4.932 18 5.398 18 5.766 17.848C6.00863 17.7474 6.22907 17.5999 6.41472 17.4141C6.60037 17.2283 6.7476 17.0077 6.848 16.765C7 16.398 7 15.932 7 15V14C7 13.4696 7.21071 12.9609 7.58579 12.5858C7.96086 12.2107 8.46957 12 9 12C9.53043 12 10.0391 12.2107 10.4142 12.5858C10.7893 12.9609 11 13.4696 11 14V15C11 15.932 11 16.398 11.152 16.765C11.2524 17.0077 11.3996 17.2283 11.5853 17.4141C11.7709 17.5999 11.9914 17.7474 12.234 17.848C12.602 18 13.068 18 14 18C14.932 18 15.398 18 15.766 17.848C16.0086 17.7474 16.2291 17.5999 16.4147 17.4141C16.6004 17.2283 16.7476 17.0077 16.848 16.765C17 16.398 17 15.932 17 15Z" stroke="white" stroke-width="2" stroke-linecap="round" stroke-linejoin="round"/>
</svg>
