<svg width="9" height="9" viewBox="0 0 9 9" fill="none" xmlns="http://www.w3.org/2000/svg">
<path d="M2.33594 8.625C1.68906 8.625 1.13802 8.3974 0.682812 7.94219C0.227604 7.48698 0 6.93594 0 6.28906V2.33594C0 1.68187 0.227604 1.12904 0.682812 0.677422C1.13802 0.225807 1.68906 0 2.33594 0H6.28906C6.94313 0 7.49596 0.225807 7.94758 0.677422C8.39919 1.12904 8.625 1.68187 8.625 2.33594V6.28906C8.625 6.93594 8.39919 7.48698 7.94758 7.94219C7.49596 8.3974 6.94313 8.625 6.28906 8.625H2.33594ZM2.33594 7.90625H6.28906C6.74731 7.90625 7.13139 7.75129 7.44134 7.44134C7.75129 7.13132 7.90625 6.74722 7.90625 6.28906V2.33594C7.90625 1.87769 7.75129 1.49361 7.44134 1.18366C7.13139 0.87372 6.74731 0.71875 6.28906 0.71875H2.33594C1.87778 0.71875 1.49368 0.87372 1.18366 1.18366C0.87372 1.49361 0.71875 1.87769 0.71875 2.33594V6.28906C0.71875 6.74722 0.87372 7.13132 1.18366 7.44134C1.49368 7.75129 1.87778 7.90625 2.33594 7.90625ZM4.3125 6.64844C3.66562 6.64844 3.11458 6.42083 2.65938 5.96562C2.20417 5.51042 1.97656 4.95739 1.97656 4.30651C1.97656 3.65563 2.20417 3.10459 2.65938 2.65339C3.11458 2.20218 3.66761 1.97656 4.31849 1.97656C4.96937 1.97656 5.52041 2.20237 5.97161 2.65398C6.42282 3.1056 6.64844 3.65844 6.64844 4.3125C6.64844 4.95938 6.42263 5.51042 5.97102 5.96562C5.5194 6.42083 4.96656 6.64844 4.3125 6.64844ZM4.3125 5.92969C4.77075 5.92969 5.15483 5.77472 5.46478 5.46478C5.77472 5.15476 5.92969 4.77066 5.92969 4.3125C5.92969 3.85425 5.77472 3.47017 5.46478 3.16022C5.15483 2.85028 4.77075 2.69531 4.3125 2.69531C3.85434 2.69531 3.47024 2.85028 3.16022 3.16022C2.85028 3.47017 2.69531 3.85425 2.69531 4.3125C2.69531 4.77066 2.85028 5.15476 3.16022 5.46478C3.47024 5.77472 3.85434 5.92969 4.3125 5.92969Z" fill="#020008"/>
</svg>
