<svg width="9" height="10" viewBox="0 0 9 10" fill="none" xmlns="http://www.w3.org/2000/svg">
<path d="M2.71582 9.54321C2.06895 9.54321 1.5179 9.31561 1.0627 8.8604C0.607487 8.40519 0.379883 7.85415 0.379883 7.20728V3.25415C0.379883 2.60009 0.607487 2.04725 1.0627 1.59563C1.5179 1.14402 2.06895 0.918213 2.71582 0.918213H6.66895C7.32301 0.918213 7.87585 1.14402 8.32746 1.59563C8.77908 2.04725 9.00488 2.60009 9.00488 3.25415V7.20728C9.00488 7.85415 8.77908 8.40519 8.32746 8.8604C7.87585 9.31561 7.32301 9.54321 6.66895 9.54321H2.71582ZM2.71582 8.82446H6.66895C7.1272 8.82446 7.51127 8.6695 7.82122 8.35955C8.13117 8.04953 8.28613 7.66543 8.28613 7.20728V3.25415C8.28613 2.7959 8.13117 2.41182 7.82122 2.10187C7.51127 1.79193 7.1272 1.63696 6.66895 1.63696H2.71582C2.25767 1.63696 1.87357 1.79193 1.56354 2.10187C1.2536 2.41182 1.09863 2.7959 1.09863 3.25415V7.20728C1.09863 7.66543 1.2536 8.04953 1.56354 8.35955C1.87357 8.6695 2.25767 8.82446 2.71582 8.82446ZM4.69238 7.56665C4.04551 7.56665 3.49447 7.33905 3.03926 6.88384C2.58405 6.42863 2.35645 5.8756 2.35645 5.22472C2.35645 4.57385 2.58405 4.02281 3.03926 3.5716C3.49447 3.12039 4.0475 2.89478 4.69837 2.89478C5.34925 2.89478 5.90029 3.12058 6.3515 3.5722C6.8027 4.02381 7.02832 4.57665 7.02832 5.23071C7.02832 5.87759 6.80251 6.42863 6.3509 6.88384C5.89928 7.33905 5.34645 7.56665 4.69238 7.56665ZM4.69238 6.8479C5.15063 6.8479 5.53471 6.69294 5.84466 6.38299C6.15461 6.07297 6.30957 5.68887 6.30957 5.23071C6.30957 4.77246 6.15461 4.38839 5.84466 4.07844C5.53471 3.76849 5.15063 3.61353 4.69238 3.61353C4.23423 3.61353 3.85013 3.76849 3.54011 4.07844C3.23016 4.38839 3.0752 4.77246 3.0752 5.23071C3.0752 5.68887 3.23016 6.07297 3.54011 6.38299C3.85013 6.69294 4.23423 6.8479 4.69238 6.8479Z" fill="white"/>
</svg>
