<svg width="10" height="10" viewBox="0 0 10 10" fill="none" xmlns="http://www.w3.org/2000/svg">
<g id="Linkedin-Logo--Streamline-Logos.svg" clip-path="url(#clip0_275_179)">
<path id="Vector" fill-rule="evenodd" clip-rule="evenodd" d="M1.56723 2.57709C1.835 2.57709 2.0918 2.47072 2.28114 2.28138C2.47048 2.09204 2.57685 1.83524 2.57685 1.56748C2.57685 1.29971 2.47048 1.04291 2.28114 0.853571C2.0918 0.664231 1.835 0.557861 1.56723 0.557861C1.29947 0.557861 1.04267 0.664231 0.853327 0.853571C0.663987 1.04291 0.557617 1.29971 0.557617 1.56748C0.557617 1.83524 0.663987 2.09204 0.853327 2.28138C1.04267 2.47072 1.29947 2.57709 1.56723 2.57709ZM2.57685 9.44248V3.38478H0.557617V9.44248H2.57685ZM3.38454 3.38478H5.20185V4.17067C5.491 3.79065 6.10889 3.38478 7.22108 3.38478C8.96973 3.38478 9.44223 5.1294 9.44223 6.21171V9.44248H7.423V6.21171C7.423 5.80786 7.22108 5.00017 6.41339 5.00017C5.83993 5.00017 5.43608 5.40725 5.20185 5.78807V9.44248H3.38454V3.38478Z" fill="white"/>
</g>
<defs>
<clipPath id="clip0_275_179">
<rect width="9.69231" height="9.69231" fill="white" transform="translate(0.153809 0.153809)"/>
</clipPath>
</defs>
</svg>
