<svg width="9" height="9" viewBox="0 0 9 9" fill="none" xmlns="http://www.w3.org/2000/svg">
<path fill-rule="evenodd" clip-rule="evenodd" d="M1.00962 2.01923C1.27738 2.01923 1.53418 1.91286 1.72352 1.72352C1.91286 1.53418 2.01923 1.27738 2.01923 1.00962C2.01923 0.741849 1.91286 0.485049 1.72352 0.29571C1.53418 0.10637 1.27738 0 1.00962 0C0.741849 0 0.485049 0.10637 0.29571 0.29571C0.10637 0.485049 0 0.741849 0 1.00962C0 1.27738 0.10637 1.53418 0.29571 1.72352C0.485049 1.91286 0.741849 2.01923 1.00962 2.01923ZM2.01923 8.88462V2.82692H0V8.88462H2.01923ZM2.82692 2.82692H4.64423V3.61281C4.93338 3.23279 5.55127 2.82692 6.66346 2.82692C8.41212 2.82692 8.88462 4.57154 8.88462 5.65385V8.88462H6.86538V5.65385C6.86538 5.25 6.66346 4.44231 5.85577 4.44231C5.28231 4.44231 4.87846 4.84938 4.64423 5.23021V8.88462H2.82692V2.82692Z" fill="#020008"/>
</svg>
