<svg width="37" height="36" viewBox="0 0 37 36" fill="none" xmlns="http://www.w3.org/2000/svg">
<path d="M29.75 25.5C29.75 26.7206 28.7416 28.0266 26.6504 29.0723C24.6038 30.0955 21.7237 30.75 18.5 30.75C15.2763 30.75 12.3962 30.0955 10.3496 29.0723C8.25835 28.0266 7.25 26.7206 7.25 25.5V24.2256C7.90816 24.8778 8.74294 25.4462 9.67871 25.9141C11.9746 27.0619 15.0941 27.75 18.5 27.75C21.9059 27.75 25.0254 27.0619 27.3213 25.9141C28.2571 25.4462 29.0918 24.8778 29.75 24.2256V25.5ZM29.75 18C29.75 19.2206 28.7416 20.5266 26.6504 21.5723C24.6038 22.5955 21.7237 23.25 18.5 23.25C15.2763 23.25 12.3962 22.5955 10.3496 21.5723C8.25835 20.5266 7.25 19.2206 7.25 18V16.7256C7.90816 17.3778 8.74294 17.9462 9.67871 18.4141C11.9746 19.5619 15.0941 20.25 18.5 20.25C21.9059 20.25 25.0254 19.5619 27.3213 18.4141C28.2571 17.9462 29.0918 17.3778 29.75 16.7256V18ZM18.5 5.25C21.7237 5.25 24.6038 5.90454 26.6504 6.92773C28.7416 7.97336 29.75 9.27944 29.75 10.5C29.75 11.7206 28.7416 13.0266 26.6504 14.0723C24.6038 15.0955 21.7237 15.75 18.5 15.75C15.2763 15.75 12.3962 15.0955 10.3496 14.0723C8.25835 13.0266 7.25 11.7206 7.25 10.5C7.25 9.27944 8.25835 7.97336 10.3496 6.92773C12.3962 5.90454 15.2763 5.25 18.5 5.25Z" stroke="#DFA85C" stroke-width="1.5"/>
</svg>
