<svg width="127" height="130" viewBox="0 0 127 130" fill="none" xmlns="http://www.w3.org/2000/svg">
<path d="M63.2984 2.25618L76.8609 45.1192L77.0113 45.5945H77.5098H121.448L85.8859 72.1267L85.498 72.4161L85.644 72.8775L99.2181 115.777L63.7054 89.2823L63.2984 88.9786L62.8914 89.2823L27.3788 115.777L40.9528 72.8775L41.0989 72.4161L40.7109 72.1267L5.14853 45.5945H49.087H49.5856L49.736 45.1192L63.2984 2.25618Z" stroke="#939292" stroke-width="1.36126"/>
<path d="M63.7474 18.804L73.733 50.3625L73.8437 50.7124H74.2107H106.561L80.3778 70.2471L80.0921 70.4602L80.1996 70.7999L90.1937 102.385L64.0471 82.8781L63.7474 82.6545L63.4477 82.8781L37.3011 102.385L47.2952 70.7999L47.4027 70.4602L47.117 70.2471L20.9337 50.7124H53.2841H53.6511L53.7619 50.3625L63.7474 18.804Z" stroke="#939292" stroke-width="1.00224"/>
<path d="M63.6051 25.6618L71.8767 51.8035L71.9684 52.0934H72.2725H99.0701L77.381 68.2751L77.1444 68.4516L77.2334 68.7331L85.5121 94.8972L63.8533 78.7381L63.6051 78.5529L63.3569 78.7381L41.698 94.8972L49.9767 68.7331L50.0658 68.4516L49.8292 68.2751L28.14 52.0934H54.9377H55.2417L55.3335 51.8035L63.6051 25.6618Z" stroke="#939292" stroke-width="0.830217"/>
<path d="M63.4257 31.8547L70.2815 53.5218L70.3575 53.762H70.6095H92.8202L74.8436 67.1739L74.6475 67.3202L74.7213 67.5534L81.5829 89.239L63.6315 75.8459L63.4257 75.6924L63.22 75.8459L45.2685 89.239L52.1301 67.5534L52.204 67.3202L52.0079 67.1739L34.0313 53.762H56.2419H56.4939L56.57 53.5218L63.4257 31.8547Z" stroke="#939292" stroke-width="0.688108"/>
<path d="M63.2276 37.3583L68.8165 55.0217L68.8785 55.2175H69.0839L87.1905 55.2175L72.5356 66.1511L72.3758 66.2704L72.4359 66.4605L78.0296 84.139L63.3953 73.2207L63.2276 73.0956L63.0599 73.2207L48.4255 84.139L54.0192 66.4605L54.0794 66.2704L53.9195 66.1511L39.2647 55.2175L57.3712 55.2175H57.5767L57.6387 55.0217L63.2276 37.3583Z" stroke="#939292" stroke-width="0.560957"/>
<path d="M63.264 43.5845L67.6364 57.403L67.6849 57.5563H67.8456H82.0108L70.5459 66.1099L70.4209 66.2032L70.4679 66.3519L74.844 80.1823L63.3952 71.6406L63.264 71.5427L63.1328 71.6406L51.684 80.1823L56.0601 66.3519L56.1072 66.2032L55.9821 66.1099L44.5172 57.5563H58.6824H58.8432L58.8917 57.403L63.264 43.5845Z" stroke="#939292" stroke-width="0.438852"/>
<path d="M63.0904 46.4155L66.9035 58.4665L66.9458 58.6001H67.0859H79.4393L69.4409 66.0597L69.3318 66.141L69.3729 66.2708L73.1893 78.3321L63.2048 70.883L63.0904 70.7976L62.976 70.883L52.9915 78.3321L56.8079 66.2708L56.8489 66.141L56.7399 66.0597L46.7415 58.6001H59.0948H59.235L59.2773 58.4665L63.0904 46.4155Z" stroke="#939292" stroke-width="0.382719"/>
<path d="M63.2055 50.6492L66.1034 59.808L66.1356 59.9095H66.2421H75.6307L68.0319 65.5788L67.949 65.6406L67.9802 65.7392L70.8806 74.9058L63.2924 69.2445L63.2055 69.1796L63.1185 69.2445L55.5303 74.9058L58.4308 65.7392L58.462 65.6406L58.3791 65.5788L50.7803 59.9095H60.1689H60.2754L60.3075 59.808L63.2055 50.6492Z" stroke="#939292" stroke-width="0.290867"/>
</svg>
