<svg width="44" height="44" viewBox="0 0 44 44" fill="none" xmlns="http://www.w3.org/2000/svg">
<path d="M36.6665 18.568C36.6665 11.5427 36.6665 8.03185 34.5178 5.84835C32.3692 3.66485 28.9133 3.66669 21.9998 3.66669H18.3332C11.4197 3.66669 7.962 3.66669 5.81517 5.84835C3.66834 8.03002 3.6665 11.5427 3.6665 18.568C3.6665 25.5934 3.6665 29.1042 5.81517 31.2877C6.67684 32.1622 7.7475 32.6865 9.1665 33" stroke="#B190B6" stroke-width="2.75" stroke-linecap="round" stroke-linejoin="round"/>
<path d="M40.3332 32.0834C40.3332 28.6459 40.3332 26.928 39.4587 25.7217C39.176 25.3327 38.8339 24.9905 38.4448 24.7079C37.2385 23.8334 35.5207 23.8334 32.0832 23.8334H22.9165C19.479 23.8334 17.7612 23.8334 16.5548 24.7079C16.1658 24.9905 15.8237 25.3327 15.541 25.7217C14.6665 26.9299 14.6665 28.6477 14.6665 32.0834C14.6665 35.519 14.6665 37.2387 15.541 38.445C15.8242 38.8342 16.167 39.1764 16.5567 39.4589C17.7612 40.3334 19.479 40.3334 22.9165 40.3334H32.0832C35.5207 40.3334 37.2385 40.3334 38.4448 39.4589C38.8339 39.1762 39.176 38.8341 39.4587 38.445C40.3332 37.2387 40.3332 35.5209 40.3332 32.0834Z" stroke="#B190B6" stroke-width="2.75" stroke-linecap="round" stroke-linejoin="round"/>
<path d="M30.2497 29.3333L31.9363 30.7872C32.6458 31.3977 32.9997 31.7038 32.9997 32.0833C32.9997 32.4628 32.6458 32.769 31.9363 33.3795L30.2497 34.8333M24.7497 29.3333L23.063 30.7872C22.3535 31.3977 21.9997 31.7038 21.9997 32.0833C21.9997 32.4628 22.3535 32.769 23.063 33.3795L24.7497 34.8333M4.58301 11H35.7497" stroke="#B190B6" stroke-width="2.75" stroke-linecap="round" stroke-linejoin="round"/>
</svg>
